<?xml version="1.0" encoding="utf-8"?>
<!DOCTYPE svg PUBLIC "-//W3C//DTD SVG 1.0//EN" "http://www.w3.org/TR/2001/REC-SVG-20010904/DTD/svg10.dtd">
<svg version="1.0" xmlns="http://www.w3.org/2000/svg" width="1228px" height="280px" viewBox="0 0 1228 280" preserveAspectRatio="xMidYMid meet">
 <g fill="#ffffff">
  <path d="M0 140 c0 -140 0 -140 614 -140 614 0 614 0 614 140 0 140 0 140 -614 140 -614 0 -614 0 -614 -140z m178.5 115.5 c12 -3.1 29.2 -11.3 38.6 -18.4 31.5 -23.9 47.2 -58.8 43.9 -97.2 -4.4 -49.2 -42.1 -88.8 -92 -96.4 -33.9 -5.2 -67.4 5.1 -93.7 28.9 -10.9 9.9 -23.8 30.3 -28.2 45 -2.7 8.7 -5.1 24.5 -5.1 33 0 9 3.4 28 6.5 36.2 10 26.5 31.2 49.4 56.8 61.4 9.3 4.3 23.5 8.7 32.9 10 10.6 1.5 29 0.3 40.3 -2.5z m976 -19.6 c11.4 -2.1 21.6 -9.1 24.9 -17.1 2 -4.7 2 -12 0.1 -15.8 -3.8 -7.4 -11.6 -10 -30.3 -10 -11.8 0 -14.2 -0.8 -14.2 -4.9 0 -4.3 1.7 -5 11.5 -4.9 10.3 0.1 15 -1.4 20.3 -6.5 5.8 -5.5 7.5 -10 7 -18.1 -0.3 -3.9 -1.2 -8.6 -2.2 -10.3 -1.7 -3.3 -1.7 -3.3 0.8 -3.3 1.4 0 4.1 0.8 6.1 1.7 4.3 2.1 5.3 1.3 6.1 -5.1 0.5 -3.6 0.3 -5 -0.7 -5.7 -2.5 -1.6 -7.3 -0.9 -12.7 1.8 -5.2 2.7 -5.2 2.7 -11.8 0.4 -14.9 -5.3 -31.6 -0.3 -37.5 11.1 -4 7.8 -1.6 22.3 4.6 27.7 2 1.7 4 3.1 4.5 3.1 2.3 0 0.7 2.1 -3.5 4.6 -10.5 6.1 -11.4 13.3 -2.3 19 4.1 2.6 4.1 2.6 -0.8 5.4 -5.5 3.2 -8.4 7.3 -8.4 12.1 0 6.3 9.7 12.7 22.7 14.9 7 1.1 9.3 1.1 15.8 -0.1z m-705 -4.3 c0 -1.4 -1 -2.2 -3.5 -2.9 -5.8 -1.5 -6 -1.9 -6 -13.9 0 -10.6 0.1 -10.8 2 -9.8 1.1 0.6 4.8 1.3 8.3 1.6 10.8 1 24.2 -4.9 30 -13.3 5.9 -8.6 7.2 -13 7.2 -24.8 0 -9.1 -0.4 -11.8 -2.1 -15.6 -7.8 -16.8 -25.4 -21.8 -40.2 -11.3 -4.7 3.4 -4.7 3.4 -5.3 -0.6 -0.3 -2.2 -0.8 -4.2 -1.1 -4.5 -0.6 -0.7 -19.3 3.2 -21.8 4.5 -3 1.6 -2.4 3.7 1.4 5 1.9 0.6 3.7 1.8 4 2.6 0.3 0.9 0.6 18.6 0.6 39.4 0 36.5 -0.1 38 -1.9 39 -1.1 0.5 -2.9 1 -4 1 -1.7 0 -2.1 0.6 -2.1 3 0 3 0 3 17.3 2.8 16.3 -0.3 17.2 -0.4 17.2 -2.2z m-78.3 -25.7 c16.4 -3.5 29.5 -15.1 34.9 -30.9 3.1 -9.2 3.1 -26.8 0 -35.5 -6.1 -17 -19.5 -27.8 -38.3 -30.8 -13.8 -2.2 -29.8 3.3 -39.7 13.8 -10.9 11.5 -16.1 29.8 -12.9 44.9 3.4 15.6 12.4 27.8 25.1 34.1 10.7 5.3 20.3 6.6 30.9 4.4z m170.2 -2.3 c2.9 -1.4 7.4 -4.9 10 -7.6 4 -4.3 4.5 -5.3 3.6 -7 -1.3 -2.4 -3.3 -2.6 -5.1 -0.4 -0.7 0.9 -3.6 2.9 -6.4 4.5 -9.3 5.4 -20.5 3.1 -26.3 -5.3 -3.7 -5.4 -5.5 -11.1 -5 -16.3 0.3 -4 0.3 -4 21.6 -4.3 21.2 -0.2 21.2 -0.2 21.2 -3.6 0 -6.5 -3.7 -15.9 -7.7 -19.8 -6.4 -6.1 -9.7 -7.3 -19.8 -7.3 -7.7 0.1 -9.8 0.5 -14.7 2.8 -6.5 3.2 -12.1 8.9 -15.2 15.6 -1.8 3.9 -2.1 6.4 -2.1 16.1 0 12.5 1.3 17 7.1 24.5 8 10.6 26.1 14.3 38.8 8.1z m250.9 2 c2 -0.8 5.2 -2.5 7.1 -4 1.9 -1.4 3.7 -2.6 4 -2.6 0.3 0 0.6 1.6 0.6 3.5 0 2 0.6 3.8 1.3 4.1 0.8 0.3 6.5 -0.3 12.8 -1.3 10.2 -1.6 11.4 -2 11.7 -4 0.2 -1.7 -0.3 -2.3 -2.7 -2.8 -6.2 -1.3 -6.1 -0.6 -6.1 -48.2 0 -49.8 2 -44.6 -16 -41.6 -9.2 1.5 -10 1.8 -10 3.9 0 1.7 0.7 2.4 3 2.9 5.3 1.2 6 2.7 6 13.2 0 8.7 -0.2 9.4 -1.7 8.8 -15.5 -6.4 -35 2 -43.1 18.5 -3.4 7 -4.3 21.6 -1.8 30.2 1.7 6.1 6.2 12.8 10.2 15.5 7.3 4.7 17.6 6.4 24.7 3.9z m190.3 -2.1 c6.6 -3.2 10.9 -8.6 11.8 -14.9 1.7 -11.3 -4.9 -19.9 -19.6 -25.4 -14.8 -5.6 -19.3 -14.8 -9.6 -19.8 6.4 -3.3 12.9 -0.1 17.4 8.8 2.7 5.3 3.6 6.1 5.8 5.2 1.7 -0.7 2.1 -7 0.8 -15.3 -0.7 -4.5 -0.7 -4.5 -8 -5.9 -9.5 -1.9 -16.6 -0.9 -24.5 3.2 -7.7 3.9 -10.7 8.5 -10.7 16.4 0 10.7 3.7 14.9 18.4 20.7 5.4 2.2 10.9 5.1 12.6 6.8 8.6 8.4 -2.8 21 -13.8 15.3 -4.2 -2.2 -7.1 -5.9 -9.7 -12.2 -2.6 -6.3 -3.7 -7.3 -6.1 -5.3 -1.6 1.3 -1.6 2.1 0.2 17.2 0.7 5.4 1.9 6.4 9.3 7.7 8.4 1.6 19.6 0.5 25.7 -2.5z m-289.8 -0.4 c0.4 -2.8 -1.2 -4.1 -5.3 -4.1 -6.4 0 -6.9 -3.7 -2.1 -15.5 3.2 -8 3.2 -8 19.3 -8.3 16 -0.2 16 -0.2 19.2 8.5 1.7 4.9 3.1 10 3.1 11.5 0 2.7 -0.3 2.9 -6.3 4.2 -2.4 0.6 -2.8 1.1 -2.5 3.4 0.3 2.7 0.3 2.7 17.3 3 9.3 0.2 18 0 19.3 -0.3 3.7 -0.9 2.6 -4.7 -1.8 -6.1 -1.9 -0.6 -4 -2 -4.6 -3 -1.2 -1.7 -4.9 -11.5 -26.3 -68.4 -6.6 -17.5 -6.6 -17.5 -12.2 -17.8 -6.6 -0.3 -3.5 -6.6 -23.8 47.8 -14.4 38.5 -15.7 41 -20.8 41 -2.3 0 -2.8 0.7 -3.6 4.5 -0.3 1.6 5.2 2.3 18.3 2.1 12.4 -0.1 12.5 -0.1 12.8 -2.5z m176.9 1.7 c0.6 -0.7 5.6 -13.4 11.3 -28.3 12 -31.4 12.5 -32.5 14.8 -32.5 3.2 0 5.5 -2.4 4.8 -4.8 -0.7 -2.1 -1.3 -2.2 -11.9 -2.2 -6.2 0 -11.8 0.4 -12.5 0.9 -2.6 1.6 -0.9 4.5 3.2 5.6 2.2 0.7 4.1 1.6 4.3 2.2 0.2 0.6 -2.5 8.9 -6.1 18.5 -3.5 9.5 -6.8 18.5 -7.1 20.1 -0.4 1.5 -1.1 2.7 -1.5 2.7 -0.5 0 -2.2 -3.9 -3.8 -8.7 -1.7 -4.9 -4.8 -13.9 -7 -20.2 -2.2 -6.2 -3.8 -11.9 -3.5 -12.6 0.2 -0.8 1.8 -1.7 3.4 -2 2.5 -0.6 3 -1.1 2.7 -3.3 -0.3 -2.7 -0.3 -2.7 -15.2 -3 -8.3 -0.1 -15.4 0.2 -15.9 0.7 -1.4 1.4 0 4.5 3.1 6.2 2.3 1.3 4.3 5.4 12.6 26.5 15.2 38.3 13.7 35.4 18.9 35.4 2.5 0 4.9 -0.6 5.4 -1.2z m69.1 -2.1 c0.3 -2.4 -0.1 -2.8 -2.8 -3.4 -2.1 -0.4 -3.5 -1.4 -4.1 -3 -0.5 -1.3 -0.9 -15.2 -0.9 -30.9 0 -23.1 -0.3 -28.6 -1.4 -29 -0.7 -0.3 -6.2 0.3 -12.2 1.3 -10.4 1.7 -10.9 1.9 -11.2 4.3 -0.2 2.1 0.3 2.8 3.3 3.9 2.2 0.8 4 2.2 4.6 3.8 0.5 1.3 0.9 12.2 0.9 24.1 0 23.8 -0.5 26.2 -5.6 26.2 -2.6 0 -4 2 -3 4.5 0.5 1.3 2.9 1.5 16.3 1.3 15.8 -0.3 15.8 -0.3 16.1 -3.1z m93 0.2 c0.3 -2.2 -0.2 -2.8 -2.5 -3.4 -5.4 -1.3 -5.3 -0.5 -5.3 -32.7 0 -26.1 -0.2 -29.9 -1.6 -30.5 -1.6 -0.6 -14 1.1 -20.7 2.8 -3.1 0.8 -3.8 1.4 -3.5 3.1 0.2 1.4 1.4 2.5 3.3 3.1 5.7 1.8 5.6 1 5.3 27.5 -0.3 26.5 -0.1 25.4 -6 26.7 -2.1 0.4 -2.8 1.1 -2.8 2.9 0 1.2 0.3 2.6 0.7 3 0.4 0.3 7.9 0.5 16.7 0.4 16.1 -0.3 16.1 -0.3 16.4 -2.9z m40 -0.1 c0.3 -2.2 -0.1 -2.7 -3 -3.3 -5.9 -1.3 -5.8 -0.8 -5.8 -25.9 0 -23.2 0 -23.2 3.7 -25 5.6 -2.7 12.2 -3 16.3 -0.9 6 3.1 7 6.5 7 24.9 0 19.4 -0.7 25.2 -2.9 25.8 -0.9 0.2 -2.9 0.7 -4.4 1 -2.4 0.6 -2.8 1.1 -2.5 3.4 0.3 2.7 0.3 2.7 16.4 3 13.4 0.2 16.3 0 17.4 -1.3 1.8 -2.1 0.6 -4.2 -2.9 -5 -1.6 -0.3 -3.4 -1.2 -3.9 -1.8 -0.6 -0.7 -1.2 -11.4 -1.4 -25.2 -0.2 -20.4 -0.6 -24.5 -2 -27.1 -2.7 -5 -7.3 -8.1 -13.4 -9.4 -8.5 -1.8 -14.6 -0.1 -22.5 6.1 -2 1.6 -3.9 2.9 -4.2 2.9 -0.3 0 -0.7 -2.1 -0.9 -4.7 -0.3 -4.8 -0.3 -4.8 -4 -4.5 -2 0.2 -7.4 1.3 -12 2.5 -6.9 1.8 -8.4 2.6 -8.6 4.4 -0.2 1.6 0.4 2.4 3.2 3.3 2.3 0.7 3.8 1.9 4.1 3.3 0.3 1.2 0.4 12.6 0.3 25.2 -0.3 23 -0.3 23 -4.5 24.3 -3.4 1.1 -4.3 1.9 -4.3 3.6 0 1.3 0.3 2.6 0.7 3 0.4 0.3 8.1 0.5 17.2 0.4 16.6 -0.3 16.6 -0.3 16.9 -3z m-478.5 1 c0.8 -2.4 -0.5 -3.8 -4.4 -4.8 -3.9 -1.1 -3.9 -1.1 -3.9 -24.9 0 -23.8 0 -23.8 3.8 -25.4 8.6 -3.7 16.3 -3 20.2 2 1.9 2.4 2 4 2 24.2 0 22.8 -0.2 24.1 -4.6 24.1 -2.6 0 -4.8 2.4 -4 4.5 0.5 1.3 2.9 1.5 16.8 1.3 15.2 -0.3 16.3 -0.4 16.3 -2.2 0 -1 -0.8 -2.3 -1.7 -2.7 -1 -0.5 -2.6 -1.3 -3.5 -1.8 -1.6 -0.7 -1.9 -3.2 -2.3 -24.2 -0.5 -21.7 -0.7 -23.7 -2.8 -28 -3.3 -6.7 -8.5 -9.4 -18.2 -9.4 -8 0 -11.2 1.2 -18.2 6.7 -3.8 3 -3.8 3 -3.8 -1.6 0 -2.4 -0.3 -4.7 -0.7 -4.9 -1.1 -0.7 -20 3.1 -22.4 4.4 -2.7 1.4 -2 3.1 2.4 5.2 3.7 1.7 3.7 1.7 3.5 26.4 -0.3 26.7 -0.1 25.5 -6 26.8 -2.7 0.5 -3.8 3.2 -2.1 4.8 0.3 0.4 7.9 0.7 16.9 0.7 12.1 0 16.3 -0.3 16.7 -1.2z m332.7 -77.3 c3.8 -2 6.3 -6.8 5.5 -10.5 -0.4 -1.6 -2.1 -4.1 -3.8 -5.6 -2.5 -2.1 -3.8 -2.5 -7 -2.1 -4.9 0.7 -7.5 3 -8.3 7.5 -1.1 6 3.3 11.8 9.4 12.1 0.7 0.1 2.6 -0.6 4.2 -1.4z m93 0 c6 -3.1 6.9 -10.7 2 -15.7 -2.8 -2.7 -3.6 -3 -7.3 -2.5 -7.5 1 -10.9 8.1 -7 14.7 2.8 4.8 7.3 6.1 12.3 3.5z"/>
  <path d="M141.5 226.1 c-11.4 -1.8 -27.9 -8.4 -29.1 -11.5 -0.3 -0.8 2 -6.4 5 -12.5 5.6 -11.1 5.6 -11.1 34 -11.1 32.7 0 28.5 -1.6 36.9 14.2 5.2 9.9 5.3 9.5 -4.1 14.2 -10.9 5.5 -30.8 8.6 -42.7 6.7z"/>
  <path d="M88.4 191.8 c-9.1 -13.6 -12.4 -24.9 -12.4 -42.3 0 -9.1 0.5 -13.9 2.1 -19.5 8.4 -30.4 33.7 -51.9 65.9 -55.9 30.1 -3.8 61.1 12.6 75.3 39.7 6.7 12.8 9.1 23.6 8.4 38.2 -0.6 12.9 -2.6 21.7 -7 30.5 -3.4 6.9 -8.9 15.5 -9.8 15.5 -0.6 0 -19.6 -36.1 -42.9 -81.5 -5.7 -11 -10.7 -20.6 -11.3 -21.2 -0.5 -0.7 -2.7 -1.3 -4.8 -1.3 -4.8 0 -5 0.3 -17.7 25.5 -5.5 11 -16.4 32.4 -24.1 47.5 -7.8 15.1 -14.4 28.5 -14.7 29.8 -0.3 1.2 -1 2.2 -1.4 2.2 -0.4 0 -2.9 -3.2 -5.6 -7.2z"/>
  <path d="M134.5 167.8 c1 -3.3 15.4 -31 16.9 -32.6 1.1 -1.1 2.9 1.9 10 16.3 4.7 9.6 8.6 17.8 8.6 18 0 0.3 -8.1 0.5 -18.1 0.5 -18 0 -18 0 -17.4 -2.2z"/>
  <path d="M1139 228.9 c-4 -1.7 -7.9 -6 -8.6 -9.5 -0.8 -4.4 1.9 -9.9 5.7 -11.4 4.4 -1.9 24.9 -0.9 28.3 1.3 5.6 3.7 4.5 12.4 -2.1 17.1 -3.8 2.6 -5.3 3 -12.5 3.3 -4.6 0.1 -9.4 -0.2 -10.8 -0.8z"/>
  <path d="M1143.4 176.8 c-5.9 -2.8 -9.3 -18.4 -6 -27.2 3.1 -8 10 -10 15.5 -4.6 3.2 3.3 4.7 7.4 5.7 15.7 0.8 6.2 -1.5 13.4 -4.9 15.8 -2.4 1.7 -7.2 1.9 -10.3 0.3z"/>
  <path d="M446.4 198.6 c-6.2 -2.7 -6.4 -3.8 -6.4 -27.8 0 -21.7 0 -21.7 5.2 -23.3 2.8 -0.8 7.3 -1.5 10 -1.5 4.2 0 5.3 0.5 8.6 3.8 5.5 5.5 7.6 13 6.9 24.3 -0.8 13.1 -5.1 21.4 -12.4 24.5 -4 1.7 -7.9 1.7 -11.9 0z"/>
  <path d="M355.4 198.9 c-5.4 -1.3 -11.9 -6.9 -15 -13 -4.5 -8.9 -5.7 -16.1 -5.1 -29.4 1.2 -24.3 8 -37.4 20.9 -40.5 12.5 -3 24.7 5.6 29.5 20.9 1.4 4.4 1.8 8.9 1.7 21.1 0 17.4 -1.6 25.2 -6.5 32 -5.5 7.6 -15.8 11.2 -25.5 8.9z"/>
  <path d="M512.5 157.8 c2.5 -12.4 11.1 -18.6 19.5 -14.3 3.7 1.9 5.9 6.1 6.7 12.6 0.6 4.9 0.6 4.9 -13.1 4.9 -13.8 0 -13.8 0 -13.1 -3.2z"/>
  <path d="M785.1 195.4 c-7.9 -4.1 -11.7 -14 -10.9 -29.1 0.5 -11.3 3.4 -17.6 9.4 -21 6.7 -3.8 14.9 -2.7 19.2 2.5 0.9 1.2 1.2 7.4 1.2 23.3 0 21.7 0 21.7 -2.6 23.4 -3.9 2.5 -12.2 3 -16.3 0.9z"/>
  <path d="M691.7 166.3 c-0.6 -1 11.5 -32.8 12.7 -33.4 0.9 -0.4 12.5 29.3 12.6 32.4 0 1.5 -1.2 1.7 -12.4 1.7 -6.9 0 -12.7 -0.3 -12.9 -0.7z"/>
 </g>
 <g fill="#122027">
  <path d="M1138.7 236 c-13 -2.2 -22.7 -8.6 -22.7 -14.9 0 -4.8 2.9 -8.9 8.4 -12.1 4.9 -2.8 4.9 -2.8 0.8 -5.4 -9.1 -5.7 -8.2 -12.9 2.3 -19 4.2 -2.5 5.8 -4.6 3.5 -4.6 -2.6 0 -8.1 -6.5 -9.5 -11.3 -5.5 -18.4 4 -31.3 23.7 -32.5 6.3 -0.4 8.9 0 14.2 1.9 6.6 2.3 6.6 2.3 11.8 -0.4 5.4 -2.7 10.2 -3.4 12.7 -1.8 1 0.7 1.2 2.1 0.7 5.7 -0.8 6.4 -1.8 7.2 -6.1 5.1 -2 -0.9 -4.7 -1.7 -6.1 -1.7 -2.5 0 -2.5 0 -0.8 3.2 1 1.8 1.9 6.5 2.2 10.4 0.5 8.1 -1.2 12.6 -7 18.1 -5.3 5.1 -10 6.6 -20.3 6.5 -9.8 -0.1 -11.5 0.6 -11.5 4.9 0 4.1 2.4 4.9 14.2 4.9 18.7 0 26.5 2.6 30.3 10 1.9 3.8 1.9 11.1 -0.1 15.8 -3.3 8 -13.5 15 -24.9 17.1 -6.5 1.2 -8.8 1.2 -15.8 0.1z m23.6 -9.6 c6.6 -4.7 7.7 -13.4 2.1 -17.1 -3.4 -2.2 -23.9 -3.2 -28.3 -1.3 -6.4 2.6 -7.7 12.1 -2.3 17.3 4.1 3.9 6.9 4.7 16 4.4 7.2 -0.3 8.7 -0.7 12.5 -3.3z m-8.6 -49.9 c9.7 -6.8 4.3 -34.5 -6.8 -34.5 -4.4 0 -7.6 2.6 -9.5 7.6 -3.3 8.8 0.1 24.4 6 27.2 3.1 1.6 7.9 1.4 10.3 -0.3z"/>
  <path d="M415 231 c0 -2.4 0.4 -3 2.1 -3 1.1 0 2.9 -0.5 4 -1 1.8 -1 1.9 -2.5 1.9 -39 0 -20.8 -0.3 -38.5 -0.6 -39.4 -0.3 -0.8 -2.1 -2 -4 -2.6 -3.8 -1.3 -4.4 -3.4 -1.4 -5 2.5 -1.3 21.2 -5.2 21.8 -4.5 0.3 0.3 0.8 2.3 1.1 4.5 0.6 4 0.6 4 5.3 0.6 14.8 -10.5 32.4 -5.5 40.2 11.3 1.7 3.8 2.1 6.5 2.1 15.6 0 11.8 -1.3 16.2 -7.2 24.8 -5.8 8.4 -19.2 14.3 -30 13.3 -3.5 -0.3 -7.2 -1 -8.3 -1.6 -1.9 -1 -2 -0.8 -2 9.8 0 12 0.2 12.4 6 13.9 2.5 0.7 3.5 1.5 3.5 2.9 0 1.8 -0.9 1.9 -17.2 2.2 -17.3 0.2 -17.3 0.2 -17.3 -2.8z m43.3 -32.4 c7.3 -3.1 11.6 -11.4 12.4 -24.5 0.7 -11.3 -1.4 -18.8 -6.9 -24.3 -3.3 -3.3 -4.4 -3.8 -8.6 -3.8 -2.7 0 -7.2 0.7 -10 1.5 -5.2 1.6 -5.2 1.6 -5.2 23.3 0 24 0.2 25.1 6.4 27.8 4 1.7 7.9 1.7 11.9 0z"/>
  <path d="M352 205.9 c-2.5 -0.5 -7.7 -2.5 -11.7 -4.4 -12.7 -6.3 -21.7 -18.5 -25.1 -34.1 -4.5 -21 6.6 -44.7 25.2 -54 25.9 -12.7 56.1 -0.8 65.7 26.1 3.1 8.7 3.1 26.3 0 35.5 -7.7 22.5 -30.4 35.5 -54.1 30.9z m21.6 -9.4 c10.3 -6.1 13.8 -15.6 13.8 -38.5 0.1 -12.2 -0.3 -16.7 -1.7 -21.1 -4.8 -15.3 -17 -23.9 -29.5 -20.9 -12.9 3.1 -19.7 16.2 -20.9 40.5 -0.6 13.3 0.6 20.5 5.1 29.4 6.5 12.8 21.4 17.5 33.2 10.6z"/>
  <path d="M518.9 205.7 c-10.1 -2.9 -16.7 -8.6 -21.2 -18.5 -1.8 -3.9 -2.2 -6.5 -2.2 -16.2 0 -9.7 0.3 -12.2 2.1 -16.1 3.1 -6.7 8.7 -12.4 15.2 -15.6 4.9 -2.3 7 -2.7 14.7 -2.8 10.1 0 13.4 1.2 19.8 7.3 4 3.9 7.7 13.3 7.7 19.8 0 3.4 0 3.4 -21.2 3.6 -21.3 0.3 -21.3 0.3 -21.6 4.3 -0.5 5.2 1.3 10.9 5 16.3 5.8 8.4 17 10.7 26.3 5.3 2.8 -1.6 5.7 -3.6 6.4 -4.5 1.8 -2.2 3.8 -2 5.1 0.4 0.9 1.7 0.4 2.7 -3.6 7 -8.5 9.1 -21.2 12.9 -32.5 9.7z m19.8 -49.6 c-0.8 -6.5 -3 -10.7 -6.7 -12.6 -8.4 -4.3 -17 1.9 -19.5 14.3 -0.7 3.2 -0.7 3.2 13.1 3.2 13.7 0 13.7 0 13.1 -4.9z"/>
  <path d="M775.4 205.2 c-6.9 -2.4 -9.9 -4.5 -13.4 -9.4 -4.6 -6.4 -6.3 -13.4 -5.8 -24.7 0.3 -7.9 0.8 -10.6 3 -15.1 8.1 -16.5 27.6 -24.9 43.1 -18.5 1.5 0.6 1.7 -0.1 1.7 -8.8 0 -10.5 -0.7 -12 -6 -13.2 -2.3 -0.5 -3 -1.2 -3 -2.9 0 -2.1 0.8 -2.4 10 -3.9 18 -3 16 -8.2 16 41.6 0 47.6 -0.1 46.9 6.1 48.2 2.4 0.5 2.9 1.1 2.7 2.8 -0.3 2 -1.5 2.4 -11.7 4 -6.3 1 -12 1.6 -12.8 1.3 -0.7 -0.3 -1.3 -2.1 -1.3 -4.1 0 -1.9 -0.3 -3.5 -0.6 -3.5 -0.3 0 -2.1 1.2 -4 2.6 -7.1 5.5 -15.1 6.6 -24 3.6z m26 -10.7 c2.6 -1.7 2.6 -1.7 2.6 -23.4 0 -15.9 -0.3 -22.1 -1.2 -23.3 -4.3 -5.2 -12.5 -6.3 -19.2 -2.5 -6 3.4 -8.9 9.7 -9.4 21 -0.8 15.1 3 25 10.9 29.1 4.1 2.1 12.4 1.6 16.3 -0.9z"/>
  <path d="M956.9 206 c-7.4 -1.3 -8.6 -2.3 -9.3 -7.7 -1.8 -15.1 -1.8 -15.9 -0.2 -17.2 2.4 -2 3.5 -1 6.1 5.3 2.6 6.3 5.5 10 9.7 12.2 11 5.7 22.4 -6.9 13.8 -15.3 -1.7 -1.7 -7.2 -4.6 -12.6 -6.8 -14.7 -5.8 -18.4 -10 -18.4 -20.7 0 -7.9 3 -12.5 10.7 -16.4 7.9 -4.1 15 -5.1 24.5 -3.2 7.3 1.4 7.3 1.4 8 5.9 1.3 8.3 0.9 14.6 -0.8 15.3 -2.2 0.9 -3.1 0.1 -5.8 -5.2 -4.5 -8.9 -11 -12.1 -17.4 -8.8 -9.7 5 -5.2 14.2 9.6 19.8 14.7 5.5 21.3 14.1 19.6 25.4 -1.5 10.4 -11.2 17.3 -25.1 17.9 -4.3 0.2 -9.9 0 -12.4 -0.5z"/>
  <path d="M664.5 205.1 c-1.6 -0.3 -2.9 -1.1 -2.8 -1.6 0.8 -3.8 1.3 -4.5 3.6 -4.5 5.1 0 6.4 -2.5 20.8 -41 20.3 -54.4 17.2 -48.1 23.8 -47.8 5.6 0.3 5.6 0.3 12.2 17.8 21.4 56.9 25.1 66.7 26.3 68.4 0.6 1 2.7 2.4 4.6 3 4.4 1.4 5.5 5.2 1.8 6.1 -1.3 0.3 -10 0.5 -19.3 0.3 -17 -0.3 -17 -0.3 -17.3 -3 -0.3 -2.3 0.1 -2.8 2.5 -3.4 6 -1.3 6.3 -1.5 6.3 -4.2 0 -1.5 -1.4 -6.6 -3.1 -11.5 -3.2 -8.7 -3.2 -8.7 -19.2 -8.5 -16.1 0.3 -16.1 0.3 -19.3 8.3 -4.8 11.8 -4.3 15.5 2.1 15.5 4.1 0 5.7 1.3 5.3 4.1 -0.3 2.4 -0.4 2.4 -12.8 2.5 -6.9 0.1 -13.8 -0.1 -15.5 -0.5z m52.5 -39.8 c-0.1 -3.1 -11.7 -32.8 -12.6 -32.4 -1.2 0.6 -13.3 32.4 -12.7 33.4 0.2 0.4 6 0.7 12.9 0.7 11.2 0 12.4 -0.2 12.4 -1.7z"/>
  <path d="M857.6 200.8 c-1.3 -2.9 -6.7 -16.5 -12.2 -30.2 -8.3 -21.1 -10.3 -25.2 -12.6 -26.5 -3.1 -1.7 -4.5 -4.8 -3.1 -6.2 0.5 -0.5 7.6 -0.8 15.9 -0.7 14.9 0.3 14.9 0.3 15.2 3 0.3 2.2 -0.2 2.7 -2.7 3.3 -1.6 0.3 -3.2 1.2 -3.4 2 -0.3 0.7 1.3 6.4 3.5 12.6 2.2 6.3 5.3 15.3 7 20.2 1.6 4.8 3.3 8.7 3.8 8.7 0.4 0 1.1 -1.2 1.5 -2.7 0.3 -1.6 3.6 -10.6 7.1 -20.1 3.6 -9.6 6.3 -17.9 6.1 -18.5 -0.2 -0.6 -2.1 -1.5 -4.3 -2.2 -4.1 -1.1 -5.8 -4 -3.2 -5.6 0.7 -0.5 6.3 -0.9 12.5 -0.9 10.6 0 11.2 0.1 11.9 2.2 0.7 2.4 -1.6 4.8 -4.8 4.8 -2.3 0 -2.8 1.1 -14.8 32.5 -5.7 14.9 -10.7 27.6 -11.3 28.3 -0.5 0.6 -2.9 1.2 -5.4 1.2 -4.4 0 -4.4 -0.1 -6.7 -5.2z"/>
  <path d="M906.4 204.5 c-1 -2.5 0.4 -4.5 3 -4.5 5.1 0 5.6 -2.4 5.6 -26.2 0 -11.9 -0.4 -22.8 -0.9 -24.1 -0.6 -1.6 -2.4 -3 -4.6 -3.8 -3 -1.1 -3.5 -1.8 -3.3 -3.9 0.3 -2.4 0.8 -2.6 11.2 -4.3 6 -1 11.5 -1.6 12.2 -1.3 1.1 0.4 1.4 5.9 1.4 29 0 15.7 0.4 29.6 0.9 30.9 0.6 1.6 2 2.6 4.1 3 2.7 0.6 3.1 1 2.8 3.4 -0.3 2.8 -0.3 2.8 -16.1 3.1 -13.4 0.2 -15.8 0 -16.3 -1.3z"/>
  <path d="M998.7 205.4 c-0.4 -0.4 -0.7 -1.8 -0.7 -3 0 -1.8 0.7 -2.5 2.8 -2.9 5.9 -1.3 5.7 -0.2 6 -26.7 0.3 -26.5 0.4 -25.7 -5.3 -27.5 -1.9 -0.6 -3.1 -1.7 -3.3 -3.1 -0.3 -1.7 0.4 -2.3 3.5 -3.1 6.7 -1.7 19.1 -3.4 20.7 -2.8 1.4 0.6 1.6 4.4 1.6 30.5 0 32.2 -0.1 31.4 5.3 32.7 2.3 0.6 2.8 1.2 2.5 3.4 -0.3 2.6 -0.3 2.6 -16.4 2.9 -8.8 0.1 -16.3 -0.1 -16.7 -0.4z"/>
  <path d="M1037.7 205.4 c-0.4 -0.4 -0.7 -1.7 -0.7 -3 0 -1.7 0.9 -2.5 4.3 -3.6 4.2 -1.3 4.2 -1.3 4.5 -24.3 0.1 -12.6 0 -24 -0.3 -25.2 -0.3 -1.4 -1.8 -2.6 -4.1 -3.3 -2.8 -0.9 -3.4 -1.7 -3.2 -3.3 0.2 -1.8 1.7 -2.6 8.6 -4.4 4.6 -1.2 10 -2.3 12 -2.5 3.7 -0.3 3.7 -0.3 4 4.5 0.2 2.6 0.6 4.7 0.9 4.7 0.3 0 2.2 -1.3 4.2 -2.9 7.9 -6.2 14 -7.9 22.5 -6.1 6.1 1.3 10.7 4.4 13.4 9.4 1.4 2.6 1.8 6.7 2 27.1 0.2 13.8 0.8 24.5 1.4 25.2 0.5 0.6 2.3 1.5 3.9 1.8 3.5 0.8 4.7 2.9 2.9 5 -1.1 1.3 -4 1.5 -17.4 1.3 -16.1 -0.3 -16.1 -0.3 -16.4 -3 -0.3 -2.3 0.1 -2.8 2.5 -3.4 1.5 -0.3 3.5 -0.8 4.4 -1 2.2 -0.6 2.9 -6.4 2.9 -25.8 0 -18.4 -1 -21.8 -7 -24.9 -4.1 -2.1 -10.7 -1.8 -16.3 0.9 -3.7 1.8 -3.7 1.8 -3.7 25 0 25.1 -0.1 24.6 5.8 25.9 2.9 0.6 3.3 1.1 3 3.3 -0.3 2.7 -0.3 2.7 -16.9 3 -9.1 0.1 -16.8 -0.1 -17.2 -0.4z"/>
  <path d="M559.7 204.3 c-1.7 -1.6 -0.6 -4.3 2.1 -4.8 5.9 -1.3 5.7 -0.1 6 -26.8 0.2 -24.7 0.2 -24.7 -3.5 -26.4 -4.4 -2.1 -5.1 -3.8 -2.4 -5.2 2.4 -1.3 21.3 -5.1 22.4 -4.4 0.4 0.2 0.7 2.5 0.7 4.9 0 4.6 0 4.6 3.8 1.6 7 -5.5 10.2 -6.7 18.2 -6.7 9.7 0 14.9 2.7 18.2 9.4 2.1 4.3 2.3 6.3 2.8 28 0.4 21 0.7 23.5 2.3 24.2 0.9 0.5 2.5 1.3 3.5 1.8 0.9 0.4 1.7 1.7 1.7 2.7 0 1.8 -1.1 1.9 -16.3 2.2 -13.9 0.2 -16.3 0 -16.8 -1.3 -0.8 -2.1 1.4 -4.5 4 -4.5 4.4 0 4.6 -1.3 4.6 -24.1 0 -20.2 -0.1 -21.8 -2 -24.2 -3.9 -5 -11.6 -5.7 -20.2 -2 -3.8 1.6 -3.8 1.6 -3.8 25.4 0 23.8 0 23.8 3.9 24.9 3.9 1 5.2 2.4 4.4 4.8 -0.4 0.9 -4.6 1.2 -16.7 1.2 -9 0 -16.6 -0.3 -16.9 -0.7z"/>
  <path d="M917.9 126.9 c-3.7 -1.4 -6.4 -6.7 -5.5 -11.1 0.8 -4.5 3.4 -6.8 8.3 -7.5 7.5 -1 13.3 7 9.8 13.6 -1.5 3 -6.1 6.2 -8.7 6 -0.7 0 -2.5 -0.5 -3.9 -1z"/>
  <path d="M1010.4 126.9 c-1.1 -0.6 -2.8 -2.3 -3.7 -3.9 -3.9 -6.6 -0.5 -13.7 7 -14.7 3.7 -0.5 4.5 -0.2 7.3 2.5 4.9 5 4 12.6 -2 15.7 -3.3 1.7 -5.6 1.8 -8.6 0.4z"/>
 </g>
 <g fill="#1c4b76">
  <path d="M138.2 258 c-40.3 -5.7 -75.5 -33.7 -89.7 -71.4 -3.1 -8.2 -6.5 -27.2 -6.5 -36.2 0 -8.5 2.4 -24.3 5.1 -33 4.4 -14.7 17.3 -35.1 28.2 -45 17.4 -15.8 37.7 -25.6 59.9 -28.9 24.1 -3.7 46.4 0.1 68.8 11.6 32.3 16.5 53.8 48.6 57 84.8 3.3 38.4 -12.4 73.3 -43.9 97.2 -9.4 7.1 -26.6 15.3 -38.6 18.4 -11.3 2.8 -29.7 4 -40.3 2.5z m33 -34 c24.9 -6.3 47.1 -28.3 54.1 -53.4 1.1 -4.2 2.1 -11.8 2.4 -18.6 0.5 -9.8 0.2 -13 -1.7 -20.5 -4.6 -18.6 -15.8 -34.6 -31.6 -45.1 -43.3 -28.8 -102.4 -6.6 -116.3 43.6 -2.6 9.1 -2.9 28.5 -0.7 37.1 6 23 21.5 41.9 43.1 52.7 14.1 7 33.4 8.6 50.7 4.2z"/>
 </g>
 <g fill="#d8aa46">
  <path d="M107.4 211.8 c-1.6 -1.2 -5.2 -4.4 -8.1 -7.1 -4.9 -4.8 -5.1 -5.1 -4 -8.1 0.7 -1.7 9.9 -20.2 20.6 -41.1 10.7 -20.9 21.4 -42 23.9 -47 6.5 -13.2 7.6 -14.5 12.1 -14.5 2.1 0 4.3 0.6 4.9 1.3 0.5 0.6 7.3 13.6 15.1 28.7 7.7 15.1 19.6 38.1 26.4 51 12.4 23.5 12.4 23.5 8.8 27.4 -2 2.1 -5.8 5.6 -8.5 7.8 -5.8 4.6 -5.3 4.9 -11.2 -6.7 -7.2 -13.8 -3.4 -12.5 -36 -12.5 -28.4 0 -28.4 0 -34.1 11.5 -3.2 6.3 -6 11.5 -6.4 11.5 -0.3 0 -1.9 -1 -3.5 -2.2z m62.6 -42.3 c0 -0.2 -3.9 -8.4 -8.6 -18 -7.1 -14.4 -8.9 -17.4 -10 -16.3 -1.5 1.6 -15.9 29.3 -16.9 32.6 -0.6 2.2 -0.6 2.2 17.4 2.2 10 0 18.1 -0.2 18.1 -0.5z"/>
 </g>
</svg>